<?xml version="1.0" encoding="UTF-8"?>
<svg id="Calque_1" data-name="Calque 1" xmlns="http://www.w3.org/2000/svg" viewBox="0 0 100 100">
  <defs>
    <style>
      .cls-1 {
        fill: none;
        stroke: #000;
        stroke-miterlimit: 10;
      }
    </style>
  </defs>
  <g>
    <line class="cls-1" x1="55.86" y1="80.55" x2="43.6" y2="20.26"/>
    <line class="cls-1" x1="52.58" y1="81" x2="46.79" y2="19.75"/>
    <line class="cls-1" x1="49.28" y1="81.1" x2="50.03" y2="19.58"/>
    <line class="cls-1" x1="45.97" y1="80.84" x2="53.26" y2="19.76"/>
    <line class="cls-1" x1="42.72" y1="80.24" x2="56.46" y2="20.28"/>
    <line class="cls-1" x1="39.54" y1="79.3" x2="59.58" y2="21.13"/>
    <line class="cls-1" x1="36.49" y1="78.02" x2="62.59" y2="22.31"/>
    <line class="cls-1" x1="33.59" y1="76.42" x2="65.47" y2="23.81"/>
    <line class="cls-1" x1="30.87" y1="74.53" x2="68.16" y2="25.6"/>
    <line class="cls-1" x1="28.37" y1="72.36" x2="70.65" y2="27.67"/>
    <line class="cls-1" x1="26.12" y1="69.93" x2="72.91" y2="29.99"/>
    <line class="cls-1" x1="24.14" y1="67.28" x2="74.91" y2="32.54"/>
    <line class="cls-1" x1="22.45" y1="64.43" x2="76.62" y2="35.29"/>
    <line class="cls-1" x1="21.07" y1="61.42" x2="78.03" y2="38.2"/>
    <line class="cls-1" x1="20.02" y1="58.28" x2="79.13" y2="41.25"/>
    <line class="cls-1" x1="19.31" y1="55.05" x2="79.9" y2="44.39"/>
    <line class="cls-1" x1="18.94" y1="51.76" x2="80.32" y2="47.6"/>
    <line class="cls-1" x1="18.93" y1="48.45" x2="80.41" y2="50.84"/>
    <line class="cls-1" x1="19.28" y1="45.15" x2="80.14" y2="54.07"/>
    <line class="cls-1" x1="19.96" y1="41.92" x2="79.54" y2="57.25"/>
    <line class="cls-1" x1="20.99" y1="38.77" x2="78.6" y2="60.35"/>
    <line class="cls-1" x1="22.35" y1="35.75" x2="77.34" y2="63.33"/>
    <line class="cls-1" x1="24.02" y1="32.89" x2="75.77" y2="66.16"/>
    <line class="cls-1" x1="25.99" y1="30.23" x2="73.91" y2="68.81"/>
    <line class="cls-1" x1="28.23" y1="27.79" x2="71.77" y2="71.24"/>
    <line class="cls-1" x1="30.71" y1="25.6" x2="69.39" y2="73.43"/>
    <line class="cls-1" x1="33.41" y1="23.69" x2="66.79" y2="75.36"/>
    <line class="cls-1" x1="36.3" y1="22.07" x2="64" y2="77"/>
    <line class="cls-1" x1="39.35" y1="20.77" x2="61.05" y2="78.34"/>
    <line class="cls-1" x1="42.52" y1="19.81" x2="57.98" y2="79.35"/>
    <line class="cls-1" x1="45.77" y1="19.18" x2="54.81" y2="80.03"/>
    <line class="cls-1" x1="49.07" y1="18.91" x2="51.59" y2="80.38"/>
    <line class="cls-1" x1="52.38" y1="18.99" x2="48.35" y2="80.37"/>
    <line class="cls-1" x1="55.66" y1="19.41" x2="45.13" y2="80.03"/>
    <line class="cls-1" x1="58.88" y1="20.19" x2="41.97" y2="79.34"/>
    <line class="cls-1" x1="62" y1="21.3" x2="38.9" y2="78.32"/>
    <line class="cls-1" x1="64.98" y1="22.74" x2="35.95" y2="76.98"/>
    <line class="cls-1" x1="67.79" y1="24.49" x2="33.16" y2="75.33"/>
    <line class="cls-1" x1="70.41" y1="26.52" x2="30.56" y2="73.4"/>
    <line class="cls-1" x1="72.78" y1="28.83" x2="28.19" y2="71.2"/>
    <line class="cls-1" x1="74.91" y1="31.37" x2="26.06" y2="68.76"/>
    <line class="cls-1" x1="76.75" y1="34.12" x2="24.2" y2="66.11"/>
    <line class="cls-1" x1="78.28" y1="37.05" x2="22.63" y2="63.28"/>
    <line class="cls-1" x1="79.5" y1="40.13" x2="21.38" y2="60.29"/>
    <line class="cls-1" x1="80.38" y1="43.32" x2="20.44" y2="57.19"/>
    <line class="cls-1" x1="80.92" y1="46.59" x2="19.85" y2="54.01"/>
    <line class="cls-1" x1="81.1" y1="49.9" x2="19.59" y2="50.78"/>
    <line class="cls-1" x1="80.94" y1="53.2" x2="19.68" y2="47.54"/>
    <line class="cls-1" x1="80.43" y1="56.47" x2="20.12" y2="44.34"/>
    <line class="cls-1" x1="79.56" y1="59.67" x2="20.89" y2="41.19"/>
    <line class="cls-1" x1="78.37" y1="62.76" x2="21.99" y2="38.15"/>
    <line class="cls-1" x1="76.85" y1="65.7" x2="23.41" y2="35.24"/>
    <line class="cls-1" x1="75.03" y1="68.47" x2="25.13" y2="32.49"/>
    <line class="cls-1" x1="72.92" y1="71.02" x2="27.13" y2="29.95"/>
    <line class="cls-1" x1="70.56" y1="73.34" x2="29.39" y2="27.63"/>
    <line class="cls-1" x1="67.96" y1="75.39" x2="31.88" y2="25.57"/>
    <line class="cls-1" x1="65.16" y1="77.16" x2="34.58" y2="23.78"/>
    <line class="cls-1" x1="62.19" y1="78.62" x2="37.46" y2="22.29"/>
    <line class="cls-1" x1="59.08" y1="79.75" x2="40.47" y2="21.11"/>
  </g>
  <g>
    <line class="cls-1" x1="63.84" y1="75" x2="35.92" y2="25.86"/>
    <line class="cls-1" x1="62.16" y1="75.86" x2="37.55" y2="24.98"/>
    <line class="cls-1" x1="60.42" y1="76.61" x2="39.23" y2="24.21"/>
    <line class="cls-1" x1="58.64" y1="77.24" x2="40.96" y2="23.56"/>
    <line class="cls-1" x1="56.82" y1="77.75" x2="42.73" y2="23.02"/>
    <line class="cls-1" x1="54.97" y1="78.14" x2="44.53" y2="22.59"/>
    <line class="cls-1" x1="53.1" y1="78.41" x2="46.35" y2="22.29"/>
    <line class="cls-1" x1="51.22" y1="78.55" x2="48.19" y2="22.11"/>
    <line class="cls-1" x1="49.33" y1="78.57" x2="50.03" y2="22.05"/>
    <line class="cls-1" x1="47.44" y1="78.46" x2="51.88" y2="22.12"/>
    <line class="cls-1" x1="45.56" y1="78.23" x2="53.72" y2="22.3"/>
    <line class="cls-1" x1="43.71" y1="77.88" x2="55.54" y2="22.61"/>
    <line class="cls-1" x1="41.88" y1="77.4" x2="57.34" y2="23.03"/>
    <line class="cls-1" x1="40.08" y1="76.81" x2="59.11" y2="23.58"/>
    <line class="cls-1" x1="38.34" y1="76.09" x2="60.83" y2="24.24"/>
    <line class="cls-1" x1="36.64" y1="75.26" x2="62.51" y2="25.01"/>
    <line class="cls-1" x1="35" y1="74.32" x2="64.14" y2="25.89"/>
    <line class="cls-1" x1="33.42" y1="73.28" x2="65.7" y2="26.88"/>
    <line class="cls-1" x1="31.92" y1="72.13" x2="67.19" y2="27.97"/>
    <line class="cls-1" x1="30.5" y1="70.89" x2="68.61" y2="29.15"/>
    <line class="cls-1" x1="29.16" y1="69.55" x2="69.95" y2="30.43"/>
    <line class="cls-1" x1="27.91" y1="68.13" x2="71.2" y2="31.79"/>
    <line class="cls-1" x1="26.76" y1="66.64" x2="72.36" y2="33.23"/>
    <line class="cls-1" x1="25.71" y1="65.06" x2="73.42" y2="34.74"/>
    <line class="cls-1" x1="24.77" y1="63.42" x2="74.37" y2="36.32"/>
    <line class="cls-1" x1="23.94" y1="61.73" x2="75.22" y2="37.96"/>
    <line class="cls-1" x1="23.22" y1="59.98" x2="75.96" y2="39.66"/>
    <line class="cls-1" x1="22.62" y1="58.19" x2="76.59" y2="41.4"/>
    <line class="cls-1" x1="22.14" y1="56.36" x2="77.1" y2="43.17"/>
    <line class="cls-1" x1="21.78" y1="54.5" x2="77.49" y2="44.98"/>
    <line class="cls-1" x1="21.54" y1="52.63" x2="77.76" y2="46.81"/>
    <line class="cls-1" x1="21.43" y1="50.74" x2="77.91" y2="48.65"/>
    <line class="cls-1" x1="21.44" y1="48.85" x2="77.94" y2="50.5"/>
    <line class="cls-1" x1="21.58" y1="46.97" x2="77.85" y2="52.34"/>
    <line class="cls-1" x1="21.84" y1="45.1" x2="77.63" y2="54.18"/>
    <line class="cls-1" x1="22.23" y1="43.25" x2="77.3" y2="55.99"/>
    <line class="cls-1" x1="22.74" y1="41.43" x2="76.84" y2="57.79"/>
    <line class="cls-1" x1="23.36" y1="39.64" x2="76.27" y2="59.54"/>
    <line class="cls-1" x1="24.11" y1="37.91" x2="75.58" y2="61.26"/>
    <line class="cls-1" x1="24.96" y1="36.22" x2="74.78" y2="62.92"/>
    <line class="cls-1" x1="25.93" y1="34.6" x2="73.87" y2="64.53"/>
    <line class="cls-1" x1="27" y1="33.04" x2="72.86" y2="66.08"/>
    <line class="cls-1" x1="28.17" y1="31.56" x2="71.75" y2="67.55"/>
    <line class="cls-1" x1="29.44" y1="30.15" x2="70.54" y2="68.95"/>
    <line class="cls-1" x1="30.79" y1="28.84" x2="69.24" y2="70.27"/>
    <line class="cls-1" x1="32.23" y1="27.61" x2="67.86" y2="71.5"/>
    <line class="cls-1" x1="33.75" y1="26.49" x2="66.4" y2="72.63"/>
    <line class="cls-1" x1="35.34" y1="25.47" x2="64.87" y2="73.66"/>
    <line class="cls-1" x1="36.99" y1="24.55" x2="63.27" y2="74.6"/>
    <line class="cls-1" x1="38.7" y1="23.75" x2="61.62" y2="75.42"/>
    <line class="cls-1" x1="40.46" y1="23.06" x2="59.91" y2="76.13"/>
    <line class="cls-1" x1="42.27" y1="22.49" x2="58.16" y2="76.73"/>
    <line class="cls-1" x1="44.1" y1="22.04" x2="56.38" y2="77.21"/>
    <line class="cls-1" x1="45.96" y1="21.71" x2="54.57" y2="77.57"/>
    <line class="cls-1" x1="47.84" y1="21.5" x2="52.73" y2="77.81"/>
    <line class="cls-1" x1="49.73" y1="21.42" x2="50.89" y2="77.93"/>
    <line class="cls-1" x1="51.62" y1="21.47" x2="49.04" y2="77.93"/>
    <line class="cls-1" x1="53.5" y1="21.64" x2="47.2" y2="77.81"/>
    <line class="cls-1" x1="55.37" y1="21.93" x2="45.37" y2="77.56"/>
    <line class="cls-1" x1="57.21" y1="22.35" x2="43.55" y2="77.19"/>
    <line class="cls-1" x1="59.02" y1="22.88" x2="41.77" y2="76.71"/>
    <line class="cls-1" x1="60.8" y1="23.54" x2="40.02" y2="76.11"/>
    <line class="cls-1" x1="62.52" y1="24.31" x2="38.32" y2="75.39"/>
    <line class="cls-1" x1="64.19" y1="25.19" x2="36.67" y2="74.56"/>
    <line class="cls-1" x1="65.8" y1="26.19" x2="35.07" y2="73.63"/>
    <line class="cls-1" x1="67.34" y1="27.28" x2="33.55" y2="72.59"/>
    <line class="cls-1" x1="68.8" y1="28.48" x2="32.09" y2="71.45"/>
    <line class="cls-1" x1="70.19" y1="29.77" x2="30.71" y2="70.22"/>
    <line class="cls-1" x1="71.48" y1="31.15" x2="29.42" y2="68.9"/>
    <line class="cls-1" x1="72.68" y1="32.61" x2="28.21" y2="67.5"/>
    <line class="cls-1" x1="73.78" y1="34.14" x2="27.1" y2="66.02"/>
    <line class="cls-1" x1="74.77" y1="35.75" x2="26.09" y2="64.47"/>
    <line class="cls-1" x1="75.66" y1="37.42" x2="25.19" y2="62.86"/>
    <line class="cls-1" x1="76.44" y1="39.14" x2="24.39" y2="61.19"/>
    <line class="cls-1" x1="77.1" y1="40.91" x2="23.71" y2="59.48"/>
    <line class="cls-1" x1="77.64" y1="42.72" x2="23.14" y2="57.72"/>
    <line class="cls-1" x1="78.06" y1="44.56" x2="22.69" y2="55.93"/>
    <line class="cls-1" x1="78.36" y1="46.43" x2="22.36" y2="54.11"/>
    <line class="cls-1" x1="78.53" y1="48.31" x2="22.15" y2="52.27"/>
    <line class="cls-1" x1="78.58" y1="50.2" x2="22.06" y2="50.43"/>
    <line class="cls-1" x1="78.5" y1="52.09" x2="22.09" y2="48.58"/>
    <line class="cls-1" x1="78.3" y1="53.97" x2="22.24" y2="46.74"/>
    <line class="cls-1" x1="77.98" y1="55.83" x2="22.52" y2="44.91"/>
    <line class="cls-1" x1="77.53" y1="57.67" x2="22.92" y2="43.11"/>
    <line class="cls-1" x1="76.97" y1="59.47" x2="23.43" y2="41.33"/>
    <line class="cls-1" x1="76.28" y1="61.23" x2="24.06" y2="39.59"/>
    <line class="cls-1" x1="75.48" y1="62.94" x2="24.81" y2="37.9"/>
    <line class="cls-1" x1="74.57" y1="64.6" x2="25.66" y2="36.26"/>
    <line class="cls-1" x1="73.55" y1="66.19" x2="26.62" y2="34.68"/>
    <line class="cls-1" x1="72.43" y1="67.71" x2="27.69" y2="33.17"/>
    <line class="cls-1" x1="71.21" y1="69.16" x2="28.85" y2="31.74"/>
    <line class="cls-1" x1="69.9" y1="70.52" x2="30.1" y2="30.38"/>
    <line class="cls-1" x1="68.5" y1="71.79" x2="31.44" y2="29.1"/>
    <line class="cls-1" x1="67.02" y1="72.96" x2="32.86" y2="27.92"/>
    <line class="cls-1" x1="65.46" y1="74.04" x2="34.36" y2="26.84"/>
  </g>
</svg>